<?xml version="1.0" encoding="UTF-8"?>
<svg width="17px" height="14px" viewBox="0 0 17 14" version="1.1" xmlns="http://www.w3.org/2000/svg" xmlns:xlink="http://www.w3.org/1999/xlink">
    <title>arrow-check</title>
    <g id="Page-1" stroke="none" stroke-width="1" fill="none" fill-rule="evenodd" opacity="0.8">
        <g id="arrow-check" fill="#141414" fill-rule="nonzero">
            <path d="M10.0641,0.998043 C9.80775,0.750086 9.40118,0.759861 9.15698,1.02053 C8.91246,1.28119 8.92273,1.69369 9.17912,1.94198 L14.1022,6.68314 L1.2785,6.68314 C0.924236,6.68314 0.636719,6.97508 0.636719,7.3348 C0.636719,7.69452 0.924236,7.98646 1.2785,7.98646 L14.0817,7.98646 L9.17912,12.728 C8.92241,12.9762 8.91246,13.3887 9.15698,13.6494 C9.28309,13.7836 9.4522,13.8514 9.62163,13.8514 C9.78079,13.8514 9.93995,13.7918 10.0641,13.6716 L15.6633,8.25625 C15.9059,8.01025 16.0394,7.68312 16.0394,7.3348 C16.0394,6.98649 15.9059,6.65935 15.6521,6.40227 L10.0641,0.998043 Z" id="Path" transform="translate(8.338059, 7.334880) scale(-1, 1) translate(-8.338059, -7.334880) "></path>
        </g>
    </g>
</svg>