<svg width="17" height="14" viewBox="0 0 17 14" fill="none" xmlns="http://www.w3.org/2000/svg">
<path opacity="0.8" d="M10.0641 0.998043C9.80775 0.750086 9.40118 0.759861 9.15698 1.02053C8.91246 1.28119 8.92273 1.69369 9.17912 1.94198L14.1022 6.68314H1.2785C0.924236 6.68314 0.636719 6.97508 0.636719 7.3348C0.636719 7.69452 0.924236 7.98646 1.2785 7.98646H14.0817L9.17912 12.728C8.92241 12.9762 8.91246 13.3887 9.15698 13.6494C9.28309 13.7836 9.4522 13.8514 9.62163 13.8514C9.78079 13.8514 9.93995 13.7918 10.0641 13.6716L15.6633 8.25625C15.9059 8.01025 16.0394 7.68312 16.0394 7.3348C16.0394 6.98649 15.9059 6.65935 15.6521 6.40227L10.0641 0.998043Z" fill="#141414"/>
</svg>
