<svg width="22" height="22" viewBox="0 0 22 22" fill="none" xmlns="http://www.w3.org/2000/svg">
<g opacity="0.5">
<path d="M18.5242 15.1428C17.8092 15.8596 16.6469 15.8587 15.9319 15.1428L6.85691 6.06872C6.14099 5.35372 6.14191 4.19231 6.85691 3.47639C7.57282 2.76047 8.73424 2.76047 9.44924 3.47639L18.5233 12.5505C19.2392 13.2664 19.2411 14.4278 18.5242 15.1428Z" stroke="#141414" stroke-width="0.6" stroke-miterlimit="10" stroke-linejoin="round"/>
<path d="M19.1712 5.42029C19.8862 4.70529 19.8853 3.54295 19.1703 2.82795C18.4544 2.11204 17.2948 2.11204 16.5779 2.82795C13.7042 5.84562 12.133 2.8802 10.4922 4.52104L12.6885 6.71737L15.2809 9.31062L17.2975 11.3273C18.9457 9.67912 16.225 8.36645 19.1712 5.42029Z" stroke="#141414" stroke-width="0.6" stroke-miterlimit="10" stroke-linejoin="round"/>
<path d="M15.26 14.5312C15.0555 15.9493 14.4075 17.3151 13.3175 18.406C10.6326 21.0918 6.27937 21.0918 3.59537 18.406C0.911375 15.7201 0.910458 11.3678 3.59537 8.68289C4.67979 7.59756 6.03646 6.95131 7.44629 6.74414" stroke="#141414" stroke-width="0.6" stroke-miterlimit="10" stroke-linejoin="round"/>
<path d="M8.45703 17.6699C10.7352 17.6699 12.582 15.8231 12.582 13.5449C12.582 11.2667 10.7352 9.41992 8.45703 9.41992C6.17886 9.41992 4.33203 11.2667 4.33203 13.5449C4.33203 15.8231 6.17886 17.6699 8.45703 17.6699Z" stroke="#141414" stroke-width="0.6" stroke-miterlimit="10" stroke-linejoin="round"/>
</g>
</svg>
