<svg width="23" height="23" viewBox="0 0 23 23" fill="none" xmlns="http://www.w3.org/2000/svg">
<path d="M12.6875 9.80666C13.1953 9.80666 13.625 10.2363 13.625 10.7442V11.9942C13.625 12.541 13.1953 12.9317 12.6875 12.9317H11.4375C10.8906 12.9317 10.5 12.541 10.5 11.9942V10.7442C10.5 10.2363 10.8906 9.80666 11.4375 9.80666H12.6875ZM11.125 11.9942C11.125 12.1895 11.2422 12.3067 11.4375 12.3067H12.6875C12.8438 12.3067 13 12.1895 13 11.9942V10.7442C13 10.5879 12.8438 10.4317 12.6875 10.4317H11.4375C11.2422 10.4317 11.125 10.5879 11.125 10.7442V11.9942ZM16.125 10.7442C16.125 10.2363 16.5156 9.80666 17.0625 9.80666H18.3125C18.8203 9.80666 19.25 10.2363 19.25 10.7442V11.9942C19.25 12.541 18.8203 12.9317 18.3125 12.9317H17.0625C16.5156 12.9317 16.125 12.541 16.125 11.9942V10.7442ZM17.0625 10.4317C16.8672 10.4317 16.75 10.5879 16.75 10.7442V11.9942C16.75 12.1895 16.8672 12.3067 17.0625 12.3067H18.3125C18.4688 12.3067 18.625 12.1895 18.625 11.9942V10.7442C18.625 10.5879 18.4688 10.4317 18.3125 10.4317H17.0625ZM12.6875 4.80666C13.1953 4.80666 13.625 5.23634 13.625 5.74416V6.99416C13.625 7.54103 13.1953 7.93166 12.6875 7.93166H11.4375C10.8906 7.93166 10.5 7.54103 10.5 6.99416V5.74416C10.5 5.23634 10.8906 4.80666 11.4375 4.80666H12.6875ZM11.125 6.99416C11.125 7.18947 11.2422 7.30666 11.4375 7.30666H12.6875C12.8438 7.30666 13 7.18947 13 6.99416V5.74416C13 5.58791 12.8438 5.43166 12.6875 5.43166H11.4375C11.2422 5.43166 11.125 5.58791 11.125 5.74416V6.99416ZM16.125 5.74416C16.125 5.23634 16.5156 4.80666 17.0625 4.80666H18.3125C18.8203 4.80666 19.25 5.23634 19.25 5.74416V6.99416C19.25 7.54103 18.8203 7.93166 18.3125 7.93166H17.0625C16.5156 7.93166 16.125 7.54103 16.125 6.99416V5.74416ZM17.0625 5.43166C16.8672 5.43166 16.75 5.58791 16.75 5.74416V6.99416C16.75 7.18947 16.8672 7.30666 17.0625 7.30666H18.3125C18.4688 7.30666 18.625 7.18947 18.625 6.99416V5.74416C18.625 5.58791 18.4688 5.43166 18.3125 5.43166H17.0625ZM9.25 20.7442C8.19531 20.7442 7.375 19.9238 7.375 18.8692V2.61916C7.375 1.60353 8.19531 0.744156 9.25 0.744156H20.5C21.5156 0.744156 22.375 1.60353 22.375 2.61916V18.8692C22.375 19.9238 21.5156 20.7442 20.5 20.7442H9.25ZM8 2.61916V18.8692C8 19.5723 8.54688 20.1192 9.25 20.1192H13V16.9942C13 15.9785 13.8203 15.1192 14.875 15.1192C15.8906 15.1192 16.75 15.9785 16.75 16.9942V20.1192H20.5C21.1641 20.1192 21.75 19.5723 21.75 18.8692V2.61916C21.75 1.95509 21.1641 1.36916 20.5 1.36916H9.25C8.54688 1.36916 8 1.95509 8 2.61916ZM13.625 20.1192H16.125V16.9942C16.125 16.3301 15.5391 15.7442 14.875 15.7442C14.1719 15.7442 13.625 16.3301 13.625 16.9942V20.1192Z" fill="#2C354D"/>
</svg>
