<svg width="21" height="22" viewBox="0 0 21 22" fill="none" xmlns="http://www.w3.org/2000/svg">
<g opacity="0.5">
<path d="M19.0891 1.79637H18.9272V1.33913C18.9272 0.610452 18.3344 0.0175781 17.6057 0.0175781C16.877 0.0175781 16.2843 0.610452 16.2843 1.33913V1.79637H14.4042V1.33913C14.404 0.610452 13.8113 0.0175781 13.0826 0.0175781C12.3538 0.0175781 11.7611 0.610452 11.7611 1.33913V1.79637H9.88093V1.33913C9.88093 0.610452 9.28806 0.0175781 8.55938 0.0175781C7.83071 0.0175781 7.23783 0.610452 7.23783 1.33913V1.79637H5.35769V1.33913C5.35769 0.610452 4.76499 0.0175781 4.03614 0.0175781C3.30764 0.0175781 2.71476 0.610452 2.71476 1.33913V1.79637H2.55271C1.55878 1.79637 0.75 2.60515 0.75 3.59907V17.2944C0.75 17.4717 0.893828 17.6155 1.07127 17.6155C1.24872 17.6155 1.39254 17.4717 1.39254 17.2944V6.12326H20.2496V8.87072C20.2496 9.04799 20.3933 9.19182 20.5707 9.19182C20.7482 9.19182 20.892 9.04799 20.892 8.87072V3.59907C20.892 2.60515 20.0832 1.79637 19.0891 1.79637ZM16.9267 1.33913C16.9267 0.964671 17.2312 0.660123 17.6057 0.660123C17.9801 0.660123 18.2847 0.964671 18.2847 1.33913V2.87893C18.2847 3.25338 17.9801 3.55793 17.6057 3.55793C17.2312 3.55793 16.9267 3.25338 16.9267 2.87893V1.33913ZM12.4034 1.33913C12.4034 0.964671 12.7082 0.660123 13.0826 0.660123C13.4569 0.660123 13.7616 0.964671 13.7616 1.33913V2.87893C13.7616 3.25338 13.4571 3.55793 13.0826 3.55793C12.7082 3.55793 12.4034 3.25338 12.4034 2.87893V1.33913ZM7.88038 1.33913C7.88038 0.964671 8.18492 0.660123 8.55938 0.660123C8.93384 0.660123 9.23838 0.964671 9.23838 1.33913V2.87893C9.23838 3.25338 8.93384 3.55793 8.55938 3.55793C8.18509 3.55793 7.88038 3.25338 7.88038 2.87893V1.33913ZM3.35714 1.33913C3.35714 0.964671 3.66186 0.660123 4.03614 0.660123C4.4106 0.660123 4.71532 0.964671 4.71532 1.33913V2.87893C4.71532 3.25338 4.4106 3.55793 4.03614 3.55793C3.66186 3.55793 3.35714 3.25338 3.35714 2.87893V1.33913ZM1.39254 5.48088V3.59907C1.39254 2.95937 1.913 2.43891 2.55271 2.43891H2.71476V2.87893C2.71476 3.6076 3.30764 4.20048 4.03631 4.20048C4.76499 4.20048 5.35769 3.6076 5.35769 2.87893V2.43891H7.23783V2.87893C7.23783 3.6076 7.83071 4.20048 8.55938 4.20048C9.28806 4.20048 9.88093 3.6076 9.88093 2.87893V2.43891H11.7611V2.87893C11.7611 3.6076 12.3538 4.20048 13.0824 4.20048C13.8111 4.20048 14.404 3.6076 14.404 2.87893V2.43891H16.2841V2.87893C16.2841 3.6076 16.877 4.20048 17.6057 4.20048C18.3344 4.20048 18.9272 3.6076 18.9272 2.87893V2.43891H19.0891C19.729 2.43891 20.2495 2.95937 20.2495 3.59907V5.48088H1.39254Z" fill="#141414"/>
<path d="M20.5707 9.83594C20.3933 9.83594 20.2495 9.97977 20.2495 10.1572V20.1364C20.2495 20.7763 19.729 21.2967 19.0891 21.2967H2.55271C1.913 21.2967 1.39238 20.7763 1.39238 20.1364V18.5809C1.39238 18.4034 1.24872 18.2596 1.07127 18.2596C0.893828 18.2596 0.75 18.4034 0.75 18.5809V20.1364C0.75 21.1305 1.55878 21.9393 2.55271 21.9393H19.0891C20.0832 21.9393 20.892 21.1305 20.892 20.1364V10.1572C20.892 9.97977 20.7482 9.83594 20.5707 9.83594Z" fill="#141414"/>
<path d="M4.00704 11.0674H5.46288C5.91895 11.0674 6.29006 10.6963 6.29006 10.2402V8.78438C6.29006 8.32831 5.91895 7.95703 5.46288 7.95703H4.00704C3.5508 7.95703 3.17969 8.32831 3.17969 8.78438V10.2402C3.17969 10.6963 3.5508 11.0674 4.00704 11.0674ZM3.82223 8.78438C3.82223 8.68253 3.90502 8.59958 4.00687 8.59958H5.46271C5.56473 8.59958 5.64752 8.68253 5.64752 8.78438V10.2402C5.64752 10.3421 5.56473 10.425 5.46271 10.425H4.00704C3.90502 10.425 3.82223 10.3421 3.82223 10.2402V8.78438Z" fill="#141414"/>
<path d="M8.06172 11.0674H9.51757C9.97364 11.0674 10.3447 10.6963 10.3447 10.2402V8.78438C10.3447 8.32831 9.97364 7.95703 9.51757 7.95703H8.06172C7.60565 7.95703 7.23438 8.32831 7.23438 8.78438V10.2402C7.23438 10.6963 7.60549 11.0674 8.06172 11.0674ZM7.87692 8.78438C7.87692 8.68253 7.9597 8.59958 8.06172 8.59958H9.51757C9.61942 8.59958 9.7022 8.68253 9.7022 8.78438V10.2402C9.7022 10.3421 9.61942 10.425 9.51757 10.425H8.06172C7.9597 10.425 7.87692 10.3421 7.87692 10.2402V8.78438Z" fill="#141414"/>
<path d="M12.1241 11.0674H13.5799C14.036 11.0674 14.4071 10.6963 14.4071 10.2402V8.78438C14.4071 8.32831 14.036 7.95703 13.5799 7.95703H12.1241C11.668 7.95703 11.2969 8.32831 11.2969 8.78438V10.2402C11.2967 10.6963 11.6678 11.0674 12.1241 11.0674ZM11.9393 8.78438C11.9393 8.68253 12.0222 8.59958 12.1241 8.59958H13.5799C13.6818 8.59958 13.7647 8.68253 13.7647 8.78438V10.2402C13.7647 10.3421 13.6818 10.425 13.5799 10.425H12.1241C12.0222 10.425 11.9393 10.3421 11.9393 10.2402V8.78438Z" fill="#141414"/>
<path d="M16.1787 11.0674H17.6346C18.0908 11.0674 18.4618 10.6963 18.4618 10.2402V8.78438C18.4618 8.32831 18.0908 7.95703 17.6346 7.95703H16.1787C15.7227 7.95703 15.3516 8.32831 15.3516 8.78438V10.2402C15.3514 10.6963 15.7227 11.0674 16.1787 11.0674ZM15.9939 8.78438C15.9939 8.68253 16.0769 8.59958 16.1787 8.59958H17.6346C17.7364 8.59958 17.8194 8.68253 17.8194 8.78438V10.2402C17.8194 10.3421 17.7364 10.425 17.6346 10.425H16.1787C16.0769 10.425 15.9939 10.3421 15.9939 10.2402V8.78438Z" fill="#141414"/>
<path d="M3.17969 14.4529C3.17969 14.9092 3.5508 15.2803 4.00687 15.2803H5.46271C5.91895 15.2803 6.29006 14.9092 6.29006 14.4529V12.9971C6.29006 12.541 5.91895 12.1699 5.46271 12.1699H4.00704C3.5508 12.1699 3.17969 12.541 3.17969 12.9971V14.4529ZM3.82223 12.9971C3.82223 12.8953 3.90502 12.8123 4.00687 12.8123H5.46271C5.56473 12.8123 5.64752 12.8953 5.64752 12.9971V14.4529C5.64752 14.5548 5.56473 14.6377 5.46271 14.6377H4.00704C3.90502 14.6377 3.82223 14.5548 3.82223 14.4529V12.9971Z" fill="#141414"/>
<path d="M7.23438 14.4529C7.23438 14.9092 7.60549 15.2803 8.06172 15.2803H9.51757C9.97364 15.2803 10.3447 14.9092 10.3447 14.4529V12.9971C10.3447 12.541 9.97364 12.1699 9.51757 12.1699H8.06172C7.60549 12.1699 7.23438 12.541 7.23438 12.9971V14.4529ZM7.87692 12.9971C7.87692 12.8953 7.9597 12.8123 8.06172 12.8123H9.51757C9.61942 12.8123 9.7022 12.8953 9.7022 12.9971V14.4529C9.7022 14.5548 9.61942 14.6377 9.51757 14.6377H8.06172C7.9597 14.6377 7.87692 14.5548 7.87692 14.4529V12.9971Z" fill="#141414"/>
<path d="M11.2969 14.4529C11.2969 14.9092 11.668 15.2803 12.1242 15.2803H13.5801C14.0361 15.2803 14.4072 14.9092 14.4072 14.4529V12.9971C14.4072 12.541 14.0361 12.1699 13.5801 12.1699H12.1242C11.668 12.1699 11.2969 12.541 11.2969 12.9971V14.4529ZM11.9394 12.9971C11.9394 12.8953 12.0224 12.8123 12.1242 12.8123H13.5801C13.6819 12.8123 13.7649 12.8953 13.7649 12.9971V14.4529C13.7649 14.5548 13.6819 14.6377 13.5801 14.6377H12.1242C12.0224 14.6377 11.9394 14.5548 11.9394 14.4529V12.9971Z" fill="#141414"/>
<path d="M15.3516 14.4529C15.3516 14.9092 15.7228 15.2803 16.1789 15.2803H17.6348C18.0908 15.2803 18.4619 14.9092 18.4619 14.4529V12.9971C18.4619 12.541 18.0908 12.1699 17.6348 12.1699H16.1789C15.7228 12.1699 15.3516 12.541 15.3516 12.9971V14.4529ZM15.9941 12.9971C15.9941 12.8953 16.0771 12.8123 16.1789 12.8123H17.6348C17.7366 12.8123 17.8196 12.8953 17.8196 12.9971V14.4529C17.8196 14.5548 17.7366 14.6377 17.6348 14.6377H16.1789C16.0771 14.6377 15.9941 14.5548 15.9941 14.4529V12.9971Z" fill="#141414"/>
<path d="M3.17969 18.666C3.17969 19.1221 3.5508 19.4932 4.00687 19.4932H5.46271C5.91895 19.4932 6.29006 19.1221 6.29006 18.666V17.2102C6.29006 16.7539 5.91895 16.3828 5.46271 16.3828H4.00704C3.5508 16.3828 3.17969 16.7539 3.17969 17.2102V18.666ZM3.82223 17.2102C3.82223 17.1081 3.90502 17.0254 4.00687 17.0254H5.46271C5.56473 17.0254 5.64752 17.1081 5.64752 17.2102V18.666C5.64752 18.7679 5.56473 18.8508 5.46271 18.8508H4.00704C3.90502 18.8508 3.82223 18.7679 3.82223 18.666V17.2102Z" fill="#141414"/>
<path d="M7.23438 18.666C7.23438 19.1221 7.60549 19.4932 8.06172 19.4932H9.51757C9.97364 19.4932 10.3447 19.1221 10.3447 18.666V17.2102C10.3447 16.7539 9.97364 16.3828 9.51757 16.3828H8.06172C7.60549 16.3828 7.23438 16.7539 7.23438 17.2102V18.666ZM7.87692 17.2102C7.87692 17.1081 7.9597 17.0254 8.06172 17.0254H9.51757C9.61942 17.0254 9.7022 17.1081 9.7022 17.2102V18.666C9.7022 18.7679 9.61942 18.8508 9.51757 18.8508H8.06172C7.9597 18.8508 7.87692 18.7679 7.87692 18.666V17.2102Z" fill="#141414"/>
<path d="M11.2969 18.666C11.2969 19.1221 11.668 19.4932 12.1242 19.4932H13.5801C14.0361 19.4932 14.4072 19.1221 14.4072 18.666V17.2102C14.4072 16.7539 14.0361 16.3828 13.5801 16.3828H12.1242C11.668 16.3828 11.2969 16.7539 11.2969 17.2102V18.666ZM11.9394 17.2102C11.9394 17.1081 12.0224 17.0254 12.1242 17.0254H13.5801C13.6819 17.0254 13.7649 17.1081 13.7649 17.2102V18.666C13.7649 18.7679 13.6819 18.8508 13.5801 18.8508H12.1242C12.0224 18.8508 11.9394 18.7679 11.9394 18.666V17.2102Z" fill="#141414"/>
<path d="M15.3516 18.666C15.3516 19.1221 15.7228 19.4932 16.1789 19.4932H17.6348C18.0908 19.4932 18.4619 19.1221 18.4619 18.666V17.2102C18.4619 16.7539 18.0908 16.3828 17.6348 16.3828H16.1789C15.7228 16.3828 15.3516 16.7539 15.3516 17.2102V18.666ZM15.9941 17.2102C15.9941 17.1081 16.0771 17.0254 16.1789 17.0254H17.6348C17.7366 17.0254 17.8196 17.1081 17.8196 17.2102V18.666C17.8196 18.7679 17.7366 18.8508 17.6348 18.8508H16.1789C16.0771 18.8508 15.9941 18.7679 15.9941 18.666V17.2102Z" fill="#141414"/>
</g>
</svg>
