<svg width="22" height="21" viewBox="0 0 22 21" fill="none" xmlns="http://www.w3.org/2000/svg">
<g opacity="0.5">
<path d="M14.7944 7.37394C16.7854 7.37394 18.4052 5.75412 18.4052 3.76314C18.4052 1.77216 16.7854 0.152344 14.7944 0.152344C12.8034 0.152344 11.1836 1.77216 11.1836 3.76314C11.1836 5.75412 12.8034 7.37394 14.7944 7.37394ZM14.7944 1.00377C16.3159 1.00377 17.5538 2.24164 17.5538 3.76314C17.5538 5.28465 16.3159 6.52251 14.7944 6.52251C13.2729 6.52251 12.035 5.28465 12.035 3.76314C12.035 2.24164 13.2729 1.00377 14.7944 1.00377Z" fill="#141414"/>
<path d="M18.561 8.47621C18.1576 8.36984 17.7139 8.42115 17.3436 8.61698C16.5471 9.03821 15.6886 9.2518 14.792 9.2518C13.8954 9.2518 13.0369 9.03821 12.2404 8.61698C11.8701 8.42121 11.4263 8.36989 11.023 8.47627C9.24083 8.94603 7.99609 10.5627 7.99609 12.4076V17.8678C7.99609 19.1061 9.00356 20.1135 10.2418 20.1135H19.342C20.5803 20.1135 21.5877 19.1061 21.5877 17.8678V12.4075C21.5879 10.5626 20.3431 8.94597 18.561 8.47621ZM20.7364 17.8677C20.7364 18.6365 20.1109 19.2621 19.3421 19.2621H10.2419C9.47304 19.2621 8.84758 18.6365 8.84758 17.8677V12.4075C8.84758 10.9489 9.83143 9.67082 11.24 9.29948C11.308 9.28155 11.3784 9.27275 11.4489 9.27275C11.5849 9.27275 11.7214 9.30567 11.8424 9.36959C12.7628 9.85638 13.7552 10.1032 14.792 10.1032C15.8288 10.1032 16.8213 9.85638 17.7417 9.36959C17.9252 9.27252 18.1447 9.24692 18.344 9.29948C19.7526 9.67082 20.7364 10.9489 20.7364 12.4075V17.8677Z" fill="#141414"/>
<path d="M6.15001 9.19455C7.63922 9.19455 8.8508 7.98297 8.8508 6.49376C8.8508 5.00455 7.63922 3.79297 6.15001 3.79297C4.6608 3.79297 3.44922 5.0045 3.44922 6.49376C3.44922 7.98302 4.66086 9.19455 6.15001 9.19455ZM6.15001 4.6444C7.16974 4.6444 7.99937 5.47397 7.99937 6.49376C7.99937 7.51354 7.16974 8.34312 6.15001 8.34312C5.13028 8.34312 4.30065 7.51349 4.30065 6.49376C4.30065 5.47403 5.13034 4.6444 6.15001 4.6444Z" fill="#141414"/>
<path d="M3.70212 11.0789C3.92576 11.0349 4.16002 11.0561 4.37934 11.1401C5.10323 11.4177 5.87343 11.522 6.64568 11.4434C6.87959 11.4196 7.04994 11.2107 7.02615 10.9768C7.00237 10.7429 6.79309 10.5723 6.55957 10.5963C5.91998 10.6614 5.28368 10.575 4.68421 10.3452C4.3152 10.2037 3.91872 10.1685 3.53768 10.2436C1.63939 10.6173 0.261719 12.2931 0.261719 14.2281V16.5032C0.261719 17.4906 1.06501 18.2939 2.05244 18.2939H6.60254C6.83765 18.2939 7.02825 18.1033 7.02825 17.8682C7.02825 17.6331 6.83765 17.4425 6.60254 17.4425H2.05244C1.53449 17.4425 1.11315 17.0211 1.11315 16.5032V14.2281C1.11315 12.6987 2.20196 11.3743 3.70212 11.0789Z" fill="#141414"/>
</g>
</svg>
