<svg width="16" height="16" viewBox="0 0 16 16" fill="none" xmlns="http://www.w3.org/2000/svg">
<g opacity="0.8">
<path d="M7.99935 4.9987C8.73573 4.9987 9.33268 4.40174 9.33268 3.66536C9.33268 2.92898 8.73573 2.33203 7.99935 2.33203C7.26297 2.33203 6.66602 2.92898 6.66602 3.66536C6.66602 4.40174 7.26297 4.9987 7.99935 4.9987Z" stroke="#141414" stroke-width="0.666667" stroke-miterlimit="10" stroke-linecap="round" stroke-linejoin="round"/>
<path d="M9.33203 3.66602H13.6807" stroke="#141414" stroke-width="0.666667" stroke-miterlimit="10" stroke-linecap="round" stroke-linejoin="round"/>
<path d="M2.34766 3.66602H6.66432" stroke="#141414" stroke-width="0.666667" stroke-miterlimit="10" stroke-linecap="round" stroke-linejoin="round"/>
<path d="M5.33333 8.9987C6.06971 8.9987 6.66667 8.40174 6.66667 7.66536C6.66667 6.92898 6.06971 6.33203 5.33333 6.33203C4.59695 6.33203 4 6.92898 4 7.66536C4 8.40174 4.59695 8.9987 5.33333 8.9987Z" stroke="#141414" stroke-width="0.666667" stroke-miterlimit="10" stroke-linecap="round" stroke-linejoin="round"/>
<path d="M6.66406 7.66602H13.6807" stroke="#141414" stroke-width="0.666667" stroke-miterlimit="10" stroke-linecap="round" stroke-linejoin="round"/>
<path d="M2.34766 7.66602H3.99766" stroke="#141414" stroke-width="0.666667" stroke-miterlimit="10" stroke-linecap="round" stroke-linejoin="round"/>
<path d="M6.66732 12.9987C7.4037 12.9987 8.00065 12.4017 8.00065 11.6654C8.00065 10.929 7.4037 10.332 6.66732 10.332C5.93094 10.332 5.33398 10.929 5.33398 11.6654C5.33398 12.4017 5.93094 12.9987 6.66732 12.9987Z" stroke="#141414" stroke-width="0.666667" stroke-miterlimit="10" stroke-linecap="round" stroke-linejoin="round"/>
<path d="M7.99805 11.666H13.6814" stroke="#141414" stroke-width="0.666667" stroke-miterlimit="10" stroke-linecap="round" stroke-linejoin="round"/>
<path d="M2.34766 11.666H5.33366" stroke="#141414" stroke-width="0.666667" stroke-miterlimit="10" stroke-linecap="round" stroke-linejoin="round"/>
</g>
</svg>
