<svg width="31" height="24" viewBox="0 0 31 24" fill="none" xmlns="http://www.w3.org/2000/svg">
<path d="M0 0.589844H30.6085V23.5462H0V0.589844Z" fill="#000066"/>
<path fill-rule="evenodd" clip-rule="evenodd" d="M14.3367 19.3619L12.2468 19.5437L12.5337 21.6193L11.0942 20.1032L9.6546 21.6193L9.94155 19.5437L7.85156 19.3619L9.6546 18.2954L8.49243 16.5498L10.4533 17.2911L11.0942 15.2967L11.7398 17.2911L13.7007 16.5498L12.5385 18.2954L14.3367 19.3619ZM23.2706 21.275L22.7636 20.5193L23.6149 20.8397L23.8923 19.9741L24.1697 20.8397L25.021 20.5193L24.5189 21.275L25.3032 21.7389L24.3945 21.8202L24.5189 22.7241L23.8971 22.0593L23.2658 22.7241L23.3902 21.8202L22.4815 21.7436L23.2706 21.275ZM23.2658 7.78328L22.7636 7.02764L23.6149 7.34807L23.8923 6.48242L24.1697 7.34807L25.021 7.02764L24.5189 7.78328L25.3032 8.25198L24.3945 8.3285L24.5189 9.23241L23.8971 8.57241L23.2658 9.22763L23.3902 8.3285L22.4815 8.25198L23.2658 7.78328ZM18.2106 13.2641L17.7085 12.5085L18.5598 12.8289L18.8371 11.9633L19.1193 12.8289L19.9706 12.5085L19.4637 13.2641L20.248 13.728L19.3393 13.8093L19.4685 14.7132L18.8371 14.0485L18.2154 14.7132L18.335 13.8093L17.4263 13.7328L18.2106 13.2641ZM27.771 11.9154L27.2593 11.1598L28.1106 11.4802L28.388 10.6146L28.6701 11.4802L29.5214 11.1598L29.0193 11.9154L29.7988 12.3793L28.8901 12.4607L29.0145 13.3598L28.3927 12.6998L27.7614 13.3598L27.8858 12.4607L26.9771 12.3793L27.771 11.9154ZM25.9202 15.8945L25.4275 16.2054L25.5662 15.6363L25.1215 15.2632L25.7002 15.2154L25.9202 14.6798L26.1449 15.2202L26.7236 15.2632L26.2788 15.6363L26.4175 16.2054" fill="white"/>
<path d="M0 0.589844H15.3043V12.068H0V0.589844Z" fill="#000066"/>
<path d="M1.79347 0.589844L7.62822 4.91808L13.4391 0.589844H15.3043V2.07244L9.56516 6.35285L15.3043 10.6094V12.068H13.3912L7.65213 7.78763L1.93695 12.068H0V10.6333L5.71519 6.37677L0 2.12027V0.589844H1.79347Z" fill="white"/>
<path d="M10.1391 7.30937L15.3043 11.1115V12.068L8.82386 7.30937H10.1391ZM5.7391 7.78763L5.88258 8.62458L1.2913 12.068H0L5.7391 7.78763ZM15.3043 0.589844V0.661582L9.34995 5.15721L9.39777 4.10504L14.1086 0.589844H15.3043ZM0 0.589844L5.71519 4.79852H4.28041L0 1.59419V0.589844Z" fill="#C8102E"/>
<path d="M5.76301 0.589844V12.068H9.58908V0.589844H5.76301ZM0 4.41591V8.24197H15.3043V4.41591H0Z" fill="white"/>
<path d="M0 5.20504V7.50067H15.3043V5.20504H0ZM6.52822 0.589844V12.068H8.82386V0.589844H6.52822Z" fill="#C8102E"/>
</svg>
