<svg width="28" height="28" viewBox="0 0 28 28" fill="none" xmlns="http://www.w3.org/2000/svg">
<g clip-path="url(#clip0_2441_52715)">
<path d="M26.9733 6.58594V25.6802C26.9733 25.9781 26.8549 26.2637 26.6443 26.4744C26.4337 26.685 26.148 26.8034 25.8501 26.8034H6.75586" stroke="#141414" stroke-width="1.12319" stroke-linecap="round" stroke-linejoin="round"/>
<path d="M24.7293 3.2168V23.4342C24.7293 23.7321 24.6109 24.0178 24.4003 24.2284C24.1897 24.4391 23.904 24.5574 23.6061 24.5574H3.38867" stroke="#141414" stroke-width="1.12319" stroke-linecap="round" stroke-linejoin="round"/>
<path d="M21.358 0.970703H2.26381C1.64349 0.970703 1.14062 1.47357 1.14062 2.09389V21.1881C1.14062 21.8084 1.64349 22.3113 2.26381 22.3113H21.358C21.9784 22.3113 22.4812 21.8084 22.4812 21.1881V2.09389C22.4812 1.47357 21.9784 0.970703 21.358 0.970703Z" stroke="#141414" stroke-width="1.12319" stroke-linecap="round" stroke-linejoin="round"/>
<path d="M19.6707 17.8177L15.68 9.83633C15.4037 9.28372 14.9522 9.28372 14.6759 9.83633L11.8084 15.5713L9.71927 13.0644C9.64529 12.955 9.54366 12.8672 9.42473 12.8098C9.3058 12.7524 9.1738 12.7275 9.04214 12.7377C8.91048 12.7478 8.78385 12.7926 8.67512 12.8676C8.5664 12.9425 8.47945 13.0449 8.42311 13.1643L5.63086 17.8177" stroke="#141414" stroke-width="1.12319" stroke-linecap="round" stroke-linejoin="round"/>
<path d="M7.31564 7.70941C8.24613 7.70941 9.00043 6.95511 9.00043 6.02463C9.00043 5.09415 8.24613 4.33984 7.31564 4.33984C6.38516 4.33984 5.63086 5.09415 5.63086 6.02463C5.63086 6.95511 6.38516 7.70941 7.31564 7.70941Z" stroke="#141414" stroke-width="1.12319" stroke-linecap="round" stroke-linejoin="round"/>
<path d="M22.4812 17.8184H1.14062" stroke="#141414" stroke-width="1.12319" stroke-linecap="round" stroke-linejoin="round"/>
</g>
<defs>
<clipPath id="clip0_2441_52715">
<rect width="26.9566" height="26.9566" fill="white" transform="translate(0.578125 0.408203)"/>
</clipPath>
</defs>
</svg>
