<svg width="23" height="23" viewBox="0 0 23 23" fill="none" xmlns="http://www.w3.org/2000/svg">
<path d="M11.3857 0C5.03962 0 0 5.2355 0 11.475C0 17.7679 5.09226 22.8607 11.3857 22.8607C17.6321 22.8607 22.8607 17.8139 22.8607 11.475C22.8607 5.2104 17.701 0 11.3857 0ZM7.46285 2.14439C5.60783 4.43988 4.79864 7.83237 4.69979 10.8052H1.362C1.6152 6.90861 4.06036 3.60596 7.46285 2.14439ZM1.36235 12.1447H4.69983C4.79891 15.1105 5.60466 18.4494 7.43454 20.711C4.04862 19.2569 1.61699 15.9938 1.36235 12.1447ZM10.7159 21.4395C9.60318 21.1689 8.55364 20.2287 7.70717 18.724C6.7126 16.9558 6.1288 14.6403 6.03999 12.1447H10.7159V21.4395ZM10.7159 10.8052H6.04031C6.21431 6.0312 8.22935 2.03938 10.7159 1.42227V10.8052ZM21.4985 10.8052H18.1606C18.0385 7.23531 16.947 4.09795 15.3253 2.13654C18.7675 3.59417 21.2426 6.90173 21.4985 10.8052ZM12.0554 1.42513C14.5352 2.05183 16.6435 5.96918 16.8203 10.8052H12.0554V1.42513ZM12.0554 21.4405V12.1358H16.8203C16.6459 16.8822 14.5694 20.8374 12.0554 21.4405ZM15.3638 20.7145C17.237 18.4343 18.059 15.0823 18.1605 
12.1358H21.4981C21.241 15.9879 18.7841 19.2622 15.3638 20.7145Z" fill="#fff"/>
</svg>
