<svg width="14" height="14" viewBox="0 0 14 14" fill="none" xmlns="http://www.w3.org/2000/svg">
<path opacity="0.8" d="M12.7777 6.11375H7.2222V0.555807C7.2222 0.248838 6.97347 0 6.66663 0C6.3598 0 6.11107 0.248838 6.11107 0.555807V6.11378H0.555564C0.248729 6.11375 0 6.36259 0 6.66956C0 6.97653 0.248729 7.22537 0.555564 7.22537H6.1111V12.7833C6.1111 13.0903 6.35983 13.3392 6.66667 13.3392C6.9735 13.3392 7.22223 13.0903 7.22223 12.7833V7.22537H12.7778C13.0846 7.22537 13.3333 6.97653 13.3333 6.66956C13.3333 6.36259 13.0845 6.11375 12.7777 6.11375Z" fill="#141414"/>
</svg>
