<svg width="19" height="19" viewBox="0 0 19 19" fill="none" xmlns="http://www.w3.org/2000/svg">
<path d="M9.48338 18.967C4.25399 18.967 0 14.7125 0 9.48338C0 4.25425 4.25425 0 9.48338 0C14.7125 0 18.9665 4.25425 18.9665 9.48338C18.9665 14.7125 14.7125 18.967 9.48338 18.967ZM9.48338 0.527104C4.54495 0.527104 0.527103 4.54495 0.527103 9.48338C0.527103 14.4221 4.54495 18.4399 9.48338 18.4399C14.4218 18.4399 18.4394 14.4221 18.4394 9.48338C18.4394 4.54495 14.4218 0.527104 9.48338 0.527104Z" fill="#141414"/>
<path d="M13.2008 15.6094C13.0611 15.6094 12.9093 15.5485 12.7362 15.4228L9.99367 13.4301C9.73381 13.2411 9.23438 13.2409 8.97452 13.4304L6.232 15.4228C5.89333 15.6692 5.59605 15.6603 5.44213 15.4487C5.33777 15.3053 5.32907 15.0971 5.41604 14.8298L6.4634 11.6061C6.56723 11.2866 6.42017 10.8339 6.14871 10.637L3.40593 8.64401C3.05119 8.38652 3.03406 8.15617 3.08203 8.00858C3.12999 7.86073 3.27916 7.68468 3.71745 7.68468H7.10752C7.44275 7.68468 7.82807 7.40479 7.93191 7.08589L8.97952 3.86212C9.11499 3.44492 9.32847 3.35742 9.48396 3.35742C9.63946 3.35742 9.85293 3.44492 9.9884 3.86186L11.036 7.08589C11.1399 7.40479 11.5249 7.68441 11.8604 7.68441H15.2505C15.6888 7.68441 15.8379 7.86073 15.8859 8.00832C15.9341 8.15617 15.9167 8.38652 15.562 8.64401L12.8195 10.6365C12.548 10.8336 12.401 11.2864 12.5048 11.6058L13.5521 14.8298C13.6391 15.0968 13.6304 15.3048 13.5261 15.4484C13.4507 15.5522 13.335 15.6094 13.2008 15.6094ZM9.48396 12.7546C9.791 12.7546 10.082 12.8432 10.3033 13.0037L13.0459 14.9967C13.0485 14.9985 13.0511 15.0003 13.0535 15.0022C13.0525 14.999 13.0514 14.9964 13.0503 14.9932L12.0035 11.7687C11.828 11.2284 12.0504 10.544 12.5098 10.2103L15.2523 8.21784C15.2552 8.21574 15.2579 8.21363 15.2605 8.21178C15.2571 8.21178 15.2539 8.21178 15.2505 8.21178H11.8604C11.2927 8.21178 10.7105 7.78904 10.5347 7.24903L9.48712 4.02473C9.48607 4.02157 9.48502 4.01867 9.48396 4.01551C9.48291 4.01867 9.48185 4.02157 9.4808 4.02473L8.43318 7.24876C8.25739 7.78904 7.67521 8.21178 7.10752 8.21178H3.71745C3.71402 8.21178 3.71086 8.21178 3.70743 8.21178C3.71007 8.21389 3.71297 8.216 3.7156 8.21758L6.45812 10.2106C6.9175 10.544 7.13993 11.2284 6.96441 11.7687L5.91705 14.9927C5.916 14.9959 5.91494 14.9988 5.91415 15.0019C5.91653 15.0001 5.91916 14.9982 5.92153 14.9964L8.66405 13.0037C8.88596 12.8432 9.17692 12.7546 9.48396 12.7546Z" fill="#141414"/>
</svg>
