<svg width="26" height="25" viewBox="0 0 26 25" fill="none" xmlns="http://www.w3.org/2000/svg">
<path fill-rule="evenodd" clip-rule="evenodd" d="M12.9633 19.0866C12.5738 19.0866 12.2578 18.7692 12.2578 18.3779V1.36885C12.2578 0.97741 12.5738 0.660156 12.9633 0.660156C13.3528 0.660156 13.6688 0.97741 13.6688 1.36885V18.3779C13.6688 18.7694 13.3528 19.0866 12.9633 19.0866Z" fill="#2C354D"/>
<path fill-rule="evenodd" clip-rule="evenodd" d="M12.0477 0.517046C12.5762 0.0620263 13.3558 0.0620263 13.8843 0.517046L17.828 3.91279C18.1239 4.16753 18.1582 4.61492 17.9047 4.91213C17.6512 5.20934 17.2056 5.24375 16.9099 4.98901L13.8843 2.38394C13.3558 1.92892 12.5762 1.92892 12.0477 2.38394L9.02212 4.98901C8.72625 5.24375 8.28088 5.20934 8.02729 4.91213C7.77371 4.61492 7.80795 4.16753 8.10383 3.91279L12.0477 0.517046Z" fill="#2C354D"/>
<path d="M0.265625 11.9994C0.265625 11.2165 0.897426 10.582 1.67664 10.582H6.61535C7.00503 10.582 7.32086 10.8994 7.32086 11.2907C7.32086 11.682 7.00503 11.9994 6.61535 11.9994H1.67664V23.3389H24.2534V11.9994H19.3146C18.9251 11.9994 18.6091 11.682 18.6091 11.2907C18.6091 10.8994 18.9251 10.582 19.3146 10.582H24.2534C25.0327 10.582 25.6644 11.2165 25.6644 11.9994V23.3389C25.6644 24.1217 25.0327 24.7562 24.2534 24.7562H1.67664C0.897277 24.7562 0.265625 24.1216 0.265625 23.3389L0.265625 11.9994Z" fill="#2C354D"/>
</svg>
