<svg width="73px" height="28px" viewBox="0 0 73 28" version="1.1" xmlns="http://www.w3.org/2000/svg" xmlns:xlink="http://www.w3.org/1999/xlink">
    <title>Kula_logo-01</title>
    <g id="Page-1" stroke="none" stroke-width="1" fill="none" fill-rule="evenodd">
        <g id="Kula_logo-01" fill="#fff" fill-rule="nonzero">
            <path d="M50.4474576,27.5510926 C50.3810169,27.5416011 50.2576271,27.5131265 50.1722034,27.4846519 C49.9491525,27.4182113 46.0481356,25.5151604 45.8772881,25.3965163 C45.6922034,25.263635 45.5925424,25.0168553 45.6305085,24.7795672 C45.6589831,24.6324486 45.7538983,24.4995672 46.1335593,24.0914316 C46.679322,23.5077028 46.8691525,23.1660079 46.9261017,22.7009231 C46.9545763,22.4493977 46.9071186,13.1002452 46.8311864,4.4534655 L46.8169492,2.6975333 L46.6840678,2.4175333 C46.5891525,2.2134655 46.4135593,1.99516042 46.0576271,1.63448245 C45.5355932,1.09821127 45.4644068,0.98431296 45.4644068,0.656855333 C45.4644068,0.386346858 45.6257627,0.191770587 45.9010169,0.120584146 C46.2047458,0.044651943 51.8427119,-0.00755144681 52.1084746,0.0636349939 C52.2223729,0.0921095701 52.3742373,0.177533299 52.4501695,0.253465502 C52.5640678,0.367363807 52.5830508,0.429058723 52.5830508,0.642618045 C52.5830508,0.974821435 52.4976271,1.10770279 52.0088136,1.5395672 C51.4250847,2.04736381 51.2494915,2.28465194 51.1640678,2.67855025 C51.1355932,2.81617737 51.1498305,7.09685533 51.2020339,14.8941435 C51.2494915,21.4954994 51.2732203,26.9578723 51.2494915,27.0338045 C51.1450847,27.3992282 50.8271186,27.603296 50.4474576,27.5510926 Z" id="Path" transform="translate(49.023729, 13.794529) scale(-1, 1) rotate(-180.000000) translate(-49.023729, -13.794529) "></path>
            <path d="M0.702372881,27.3191581 C0.427118644,27.281192 0.256271186,27.1720395 0.194576271,26.9869547 C0.128135593,26.80187 0.128135593,26.7354293 0.194576271,26.5028869 C0.232542373,26.3605141 0.365423729,26.1991581 0.702372881,25.8574632 C1.21016949,25.3544124 1.4,25.0554293 1.45694915,24.6662768 C1.50915254,24.3150903 1.39050847,4.71509033 1.33355932,4.25475135 C1.26711864,3.74695474 1.12,3.48593779 0.564745763,2.9117005 C0.308474576,2.64119203 0.0759322034,2.36593779 0.0474576271,2.29475135 C-0.0237288136,2.10492084 -0.00949152542,1.78220898 0.0759322034,1.65881915 C0.256271186,1.40729372 0.251525424,1.40729372 3.59254237,1.37881915 C6.44949153,1.3598361 6.70576271,1.3598361 6.90508475,1.4357683 C7.18033898,1.54492084 7.26101695,1.66356491 7.26101695,1.96254796 C7.26101695,2.26627677 7.20881356,2.34220898 6.59186441,2.94492084 C6.21694915,3.31034457 6.05084746,3.50492084 5.95118644,3.71848016 L5.81355932,4.00322593 L5.83254237,7.37271745 C5.84677966,10.4147514 5.85627119,10.7517005 5.92745763,10.8323785 C5.97016949,10.8798361 7.08542373,11.9855988 8.41423729,13.2954293 C10.6589831,15.5069547 10.8298305,15.6635649 10.9342373,15.6161073 C10.9911864,15.5923785 11.3091525,15.3693276 11.6318644,15.1272937 C12.3057627,14.6194971 13.4637288,13.4900056 14.0094915,12.8066158 C16.1023729,10.1679717 17.4264407,6.86492084 17.36,4.41136152 C17.3457627,3.80864966 17.3362712,3.7517005 17.2128814,3.52864966 C17.0610169,3.24864966 16.9091525,3.08254796 16.3823729,2.61271745 C15.9362712,2.21407338 15.8413559,2.02424288 15.9362712,1.70627677 C16.0027119,1.49746321 16.1355932,1.38831067 16.4298305,1.32661576 C16.5437288,1.30288694 18.1335593,1.27441237 20.0271186,1.2696666 C23.0644068,1.25542932 23.4345763,1.26492084 23.5627119,1.33136152 C23.8616949,1.49271745 23.9566102,1.72051406 23.8616949,2.04797169 C23.8189831,2.19509033 23.6861017,2.37068355 23.3444068,2.72186999 C22.2908475,3.81814118 22.1152542,4.14559881 21.9918644,5.2798361 C21.640678,8.49271745 20.1172881,12.0283107 17.8772881,14.842548 C17.3125424,15.5496666 15.8223729,17.0540734 15.1864407,17.5571242 C14.939661,17.7564463 14.5220339,18.0649208 14.2657627,18.2405141 L13.7959322,18.5679717 L16.4725424,21.2161073 C17.9437288,22.6730564 19.3627119,24.0588191 19.6237288,24.2961073 C19.8894915,24.5381412 20.5016949,24.9984802 21.0189831,25.3449208 C21.759322,25.8479717 21.9633898,26.0093276 22.0725424,26.1849208 C22.3145763,26.5598361 22.2433898,26.9442429 21.9016949,27.1150903 C21.7213559,27.2052598 21.6027119,27.2100056 19.2677966,27.2242429 C17.9247458,27.2337344 16.7288136,27.2242429 16.6149153,27.2100056 C16.4772881,27.1862768 16.3586441,27.1340734 16.2684746,27.0439039 C16.1545763,26.9300056 16.1355932,26.8683107 16.1355932,26.6547514 C16.1355932,26.3700056 16.2115254,26.2133954 16.5627119,25.8100056 C16.9091525,25.4113615 16.9898305,25.2500056 16.9898305,24.9747514 C16.9898305,24.7944124 16.9566102,24.6852598 16.8522034,24.5239039 C16.719322,24.3150903 14.8305085,22.4262768 9.01694915,16.6791581 L5.90847458,13.6039039 L5.89898305,15.7347514 C5.88949153,16.902209 5.89898305,19.3984802 5.92271186,21.2778022 L5.9559322,24.6947514 L6.0840678,24.9557683 C6.23118644,25.2452598 6.41152542,25.4493276 6.9240678,25.9001751 C7.3559322,26.2798361 7.45084746,26.4269547 7.45084746,26.7259378 C7.45084746,27.0344124 7.28949153,27.2005141 6.9240678,27.2764463 C6.63932203,27.3333954 1.07254237,27.3761073 0.702372881,27.3191581 Z" id="Path" transform="translate(11.949474, 14.305003) scale(-1, 1) rotate(-180.000000) translate(-11.949474, -14.305003) "></path>
            <path d="M28.8305085,27.7677261 C28.7545763,27.7582346 27.8054237,27.611116 26.7233898,27.4402685 C25.6366102,27.2741668 24.6922034,27.1033194 24.6020339,27.0606075 C24.4074576,26.9656922 24.3125424,26.8470482 24.2461017,26.6050143 C24.160678,26.2728109 24.2461017,26.1019634 24.7871186,25.5609465 C25.119322,25.2239973 25.3138983,24.9819634 25.4135593,24.7873872 L25.5559322,24.5026414 L25.560678,20.5162007 C25.5701695,16.1216245 25.579661,15.9270482 25.8691525,14.7595906 C26.2345763,13.2836583 26.7613559,12.3155228 27.7105085,11.3806075 C28.4935593,10.6070482 29.2054237,10.1894211 30.2542373,9.88569225 C31.6257627,9.49179394 33.4054237,9.51077699 34.7152542,9.93314987 C35.2372881,10.1039973 35.9823729,10.4789126 36.3572881,10.7589126 C36.7511864,11.0578956 37.3159322,11.651116 37.5674576,12.030777 L37.7667797,12.3250143 L37.8,11.9406075 C37.8379661,11.4992516 37.9708475,11.0199295 38.1322034,10.7351838 C38.3884746,10.2890821 38.9484746,9.93789564 39.6318644,9.78128547 C40.1444068,9.6626414 41.9098305,9.66738716 42.4698305,9.78603123 C43.0962712,9.91416682 43.4,10.1134889 43.4664407,10.4409465 C43.5423729,10.8016245 43.3762712,11.0863702 43.0013559,11.2192516 C42.2277966,11.4992516 42,11.6843363 41.800678,12.1826414 L41.6915254,12.4484041 L41.6915254,15.770438 C41.6915254,17.5975567 41.7010169,20.9528109 41.7152542,23.2260312 C41.7389831,27.3121329 41.7389831,27.3643363 41.6440678,27.4687431 C41.5111864,27.6206075 41.2833898,27.7060312 41.0176271,27.7060312 C40.8942373,27.7060312 39.8264407,27.5589126 38.6447458,27.3785736 C37.0786441,27.1412855 36.4569492,27.0273872 36.3430508,26.9609465 C36.0345763,26.7853533 35.9254237,26.3155228 36.12,26.0023024 C36.1722034,25.9121329 36.4142373,25.6463702 36.6610169,25.4090821 C37.140339,24.9392516 37.3111864,24.6639973 37.3871186,24.2416245 C37.4155932,24.0755228 37.420339,22.4334889 37.3966102,19.7331499 C37.3538983,15.2863702 37.3538983,15.291116 37.1355932,14.4653533 C37.0169492,14.00976 36.5376271,13.0606075 36.2576271,12.7189126 C35.7450847,12.0924719 35.0664407,11.6558617 34.3118644,11.470777 C33.7898305,11.3378956 32.8311864,11.3616245 32.399322,11.5134889 C30.8854237,12.0592516 30.0928814,13.4592516 29.8888136,15.9555228 C29.8461017,16.4775567 29.8508475,17.7968787 29.9125424,21.9778956 C30.0027119,27.9006075 30.0169492,27.5256922 29.6989831,27.6870482 C29.5423729,27.7677261 29.0867797,27.810438 28.8305085,27.7677261 Z" id="Path" transform="translate(33.850979, 18.693694) scale(-1, 1) rotate(-180.000000) translate(-33.850979, -18.693694) "></path>
            <path d="M60.4847458,27.9210319 C57.6847458,27.5793369 55.6488136,26.2505234 55.259661,24.4993369 C54.9749153,23.2084895 55.6915254,22.2545912 56.9538983,22.2498454 C57.4379661,22.2498454 57.6894915,22.358998 58.0738983,22.7481505 C58.3823729,23.0661166 58.4488136,23.1705234 58.8711864,24.0200149 C59.4216949,25.1400149 59.6827119,25.5528963 60.0861017,25.9278115 C60.660339,26.4593369 61.2061017,26.6396759 62.1220339,26.6017098 C62.7674576,26.5732352 63.0142373,26.5115403 63.460339,26.2742522 C64.5423729,25.7000149 65.2067797,24.3142522 65.5579661,21.9081505 C65.6433898,21.3149302 65.8284746,19.5352691 65.8094915,19.5115403 C65.8,19.5067946 65.719322,19.5542522 65.6291525,19.6206929 C63.8020339,20.9684895 60.1715254,21.1108624 57.779661,19.9196759 C56.2705085,19.1745912 55.3498305,17.9881505 54.9938983,16.3413708 C54.8989831,15.8952691 54.9179661,14.5806929 55.0223729,14.0871335 C55.5918644,11.438998 57.879322,9.86815049 61.3627119,9.73526914 C63.6976271,9.64509965 65.6054237,10.3664556 66.5830508,11.7095064 L66.7966102,12.0037437 L66.8298305,11.7284895 C66.9057627,11.1447607 67.0955932,10.7318793 67.4325424,10.418659 C67.9355932,9.9440827 68.3769492,9.84442168 69.8576271,9.83967592 C70.5267797,9.83967592 71.1057627,9.86340473 71.3098305,9.89662507 C72.2115254,10.0532352 72.6813559,10.3284895 72.6813559,10.7034047 C72.6813559,11.0071335 72.5627119,11.1257776 72.0074576,11.3867946 C71.2528814,11.7474725 70.939661,12.117642 70.7830508,12.8437437 C70.740339,13.0193369 70.5505085,14.817981 70.3559322,16.8396759 C69.9667797,20.8498454 69.9525424,20.9874725 69.7816949,21.7515403 C69.0840678,24.8837437 67.0766102,27.0335742 64.1864407,27.7359471 C63.1423729,27.9922183 61.6711864,28.0634047 60.4847458,27.9210319 Z M63.8067797,19.1508624 C64.7511864,18.8423878 65.439322,18.1922183 65.8284746,17.257303 C66.0088136,16.8206929 66.0894915,16.3840827 66.179661,15.358998 C66.2650847,14.4050996 66.2366102,14.0159471 66.0420339,13.398998 C65.7762712,12.5684895 65.1688136,11.837642 64.4474576,11.4864556 C63.9064407,11.2206929 63.5789831,11.1447607 62.9715254,11.1447607 C62.3640678,11.1447607 61.8847458,11.2539132 61.3959322,11.5101844 C60.9355932,11.7522183 60.2332203,12.4498454 59.9484746,12.9528963 C59.1749153,14.3291674 59.0277966,16.2512013 59.6067797,17.4756081 C60.0338983,18.377303 60.8359322,19.0132352 61.8135593,19.2315403 C62.340339,19.3501844 63.3179661,19.3074725 63.8067797,19.1508624 Z" id="Shape" transform="translate(63.806846, 18.860516) scale(-1, 1) rotate(-180.000000) translate(-63.806846, -18.860516) "></path>
        </g>
    </g>
</svg>