<svg width="22" height="21" viewBox="0 0 22 21" fill="none" xmlns="http://www.w3.org/2000/svg">
<path fill-rule="evenodd" clip-rule="evenodd" d="M21.3882 7.4358L14.6945 6.46327L11.7022 0.397892C11.617 0.25302 11.4615 0.164062 11.2935 0.164062C11.1254 0.164062 10.9699 0.25302 10.8847 0.397892L7.891 6.46191L1.19551 7.4358C1.02375 7.46059 0.880967 7.58072 0.827167 7.7457C0.773367 7.91068 0.817883 8.0919 0.942002 8.21318L5.78683 12.9349L4.64333 19.6017C4.61415 19.7726 4.68444 19.9453 4.82469 20.0472C4.96494 20.1492 5.15088 20.1627 5.30445 20.0822L11.2919 16.9349L17.2793 20.0809C17.4328 20.1614 17.6188 20.1478 17.759 20.0458C17.8993 19.9439 17.9696 19.7712 17.9404 19.6003L16.7969 12.9349L21.6417 8.21318C21.7658 8.09196 21.8104 7.91083 21.7567 7.74588C21.703 7.58092 21.5603 7.46073 21.3887 7.4358H21.3882Z" fill="#FF7139"/>
</svg>
