<svg width="18" height="24" viewBox="0 0 18 24" fill="none" xmlns="http://www.w3.org/2000/svg">
<g opacity="0.5">
<path d="M8.88249 0.214844C4.05566 0.214844 0.128906 4.1416 0.128906 8.96843C0.128906 10.5575 0.841551 12.2665 0.871416 12.3386C1.10158 12.8849 1.55574 13.7335 1.88323 14.2309L7.8851 23.3248C8.13071 23.6976 8.49424 23.9113 8.88249 23.9113C9.27074 23.9113 9.63427 23.6976 9.87988 23.3253L15.8823 14.2309C16.2103 13.7335 16.6639 12.8849 16.8941 12.3386C16.9239 12.267 17.6361 10.558 17.6361 8.96843C17.6361 4.1416 13.7093 0.214844 8.88249 0.214844ZM15.9446 11.939C15.7391 12.4287 15.3164 13.218 15.0224 13.664L9.01997 22.7584C8.90154 22.9381 8.86395 22.9381 8.74552 22.7584L2.74314 13.664C2.44912 13.218 2.02637 12.4282 1.82092 11.9385C1.81217 11.9174 1.15874 10.3443 1.15874 8.96843C1.15874 4.70955 4.62361 1.24468 8.88249 1.24468C13.1414 1.24468 16.6062 4.70955 16.6062 8.96843C16.6062 10.3463 15.9513 11.9235 15.9446 11.939Z" fill="#141414"/>
<path d="M8.88034 4.33398C6.32481 4.33398 4.24609 6.41322 4.24609 8.96823C4.24609 11.5233 6.32481 13.6025 8.88034 13.6025C11.4359 13.6025 13.5146 11.5233 13.5146 8.96823C13.5146 6.41322 11.4359 4.33398 8.88034 4.33398ZM8.88034 12.5727C6.89328 12.5727 5.27593 10.9558 5.27593 8.96823C5.27593 6.98066 6.89328 5.36382 8.88034 5.36382C10.8674 5.36382 12.4848 6.98066 12.4848 8.96823C12.4848 10.9558 10.8674 12.5727 8.88034 12.5727Z" fill="#141414"/>
</g>
</svg>
