<svg width="22" height="23" viewBox="0 0 22 23" fill="none" xmlns="http://www.w3.org/2000/svg">
<g opacity="0.5">
<path d="M10.5312 20.6718C16.0713 20.6718 20.5625 16.1807 20.5625 10.6406C20.5625 5.10051 16.0713 0.609375 10.5312 0.609375C4.99113 0.609375 0.5 5.10051 0.5 10.6406C0.5 16.1807 4.99113 20.6718 10.5312 20.6718Z" stroke="#141414" stroke-width="0.875453" stroke-miterlimit="10" stroke-linejoin="round"/>
<path d="M8.25391 12.9215C8.25391 14.1809 9.27436 15.2013 10.5337 15.2013C11.7931 15.2013 12.8136 14.1809 12.8136 12.9215C12.8136 11.663 11.7931 10.6417 10.5337 10.6417C9.27436 10.6417 8.25391 9.62123 8.25391 8.36186C8.25391 7.10339 9.27436 6.08203 10.5337 6.08203C11.7931 6.08203 12.8136 7.10339 12.8136 8.36186" stroke="#141414" stroke-width="0.875453" stroke-miterlimit="10" stroke-linecap="round" stroke-linejoin="round"/>
<path d="M10.5312 4.71289V16.568" stroke="#141414" stroke-width="0.875453" stroke-miterlimit="10" stroke-linecap="round" stroke-linejoin="round"/>
</g>
</svg>
