<svg width="20" height="19" viewBox="0 0 20 19" fill="none" xmlns="http://www.w3.org/2000/svg">
<path fill-rule="evenodd" clip-rule="evenodd" d="M9.01562 16.2414C5.16146 16.2414 2.07812 13.1747 2.07812 9.34141C2.07812 7.50141 2.77187 5.73807 4.08229 4.43474C5.39271 3.13141 7.16562 2.44141 9.01562 2.44141C12.1842 2.44141 14.8318 4.51411 15.6735 7.3815L16.4916 6.27486C16.7228 5.96819 17.2624 5.89153 17.5708 6.12153C17.8791 6.35153 17.9562 6.88819 17.7249 7.19486L15.8876 9.68013C15.7826 9.92485 15.558 10.0819 15.2601 10.1051C15.2339 10.1072 15.2075 10.1082 15.1812 10.1082M15.1659 10.1079C15.122 10.1072 15.0794 10.1038 15.0385 10.0976C14.8521 10.0696 14.6982 9.98648 14.5896 9.86093L12.0971 8.03813C11.7887 7.80813 11.7117 7.27147 11.9429 6.9648C12.1742 6.65813 12.6367 6.58147 13.0221 6.81147L14.1359 7.626C13.4252 5.49149 11.4172 3.97474 9.01562 3.97474C7.55104 3.97474 6.24062 4.51141 5.16146 5.50807C4.15937 6.50474 3.61979 7.88474 3.61979 9.34141C3.61979 9.37147 3.62003 9.40146 3.62051 9.4314C3.6679 12.379 6.0396 14.7081 9.01562 14.7081C10.4802 14.7081 11.7906 14.1714 12.8698 13.1747C13.1781 12.8681 13.6406 12.8681 13.949 13.1747C14.2573 13.4814 14.2573 13.9414 13.949 14.2481C12.6385 15.5514 10.8656 16.2414 9.01562 16.2414" fill="black"/>
</svg>
