<svg width="25" height="25" viewBox="0 0 25 25" fill="none" xmlns="http://www.w3.org/2000/svg">
<path d="M3.13828 3.13081C7.55486 -1.12805 14.1276 -0.958299 18.2153 3.13081C22.1242 7.04103 22.3632 13.2322 18.9322 17.4213L25 23.4918L23.4923 25L17.4239 18.9302C13.2362 22.3623 7.04716 22.1232 3.13828 18.213C-0.949437 14.1239 -1.14164 7.25789 3.13828 3.13081ZM16.7076 4.63903C13.3769 1.30716 7.97671 1.30716 4.64598 4.63903C1.31525 7.9709 1.31525 13.3729 4.64598 16.7048C7.97671 20.0367 13.3769 20.0367 16.7076 16.7048C20.0384 13.3729 20.0384 7.9709 16.7076 4.63903Z" fill="#141414"/>
</svg>
