<svg width="23" height="23" viewBox="0 0 23 23" fill="none" xmlns="http://www.w3.org/2000/svg">
<path d="M13.7513 22.4077H2.50131C1.8984 22.4284 1.31385 22.2013 0.887264 21.7806C0.460681 21.3599 0.230363 20.7834 0.251314 20.1888V9.09395C0.230363 8.49935 0.460681 7.92287 0.887264 7.50217C1.31385 7.08147 1.8984 6.85433 2.50131 6.87499H7.00131V2.43706C6.98036 1.84246 7.21068 1.26597 7.63727 0.845271C8.06385 0.424572 8.6484 0.19743 9.25132 0.218093H20.5013C21.1042 0.19743 21.6888 0.424572 22.1154 0.845271C22.5419 1.26597 22.7723 1.84246 22.7513 2.43706V13.5319C22.7719 14.1264 22.5415 14.7027 22.115 15.1233C21.6885 15.5439 21.1041 15.7712 20.5013 15.7508H16.0013V20.1888C16.0219 20.7833 15.7915 21.3596 15.365 21.7802C14.9385 22.2008 14.3541 22.4281 13.7513 22.4077ZM2.50131 9.09395V20.1888H13.7513V15.7508H9.25132C8.64849 15.7712 8.06414 15.5439 7.63764 15.1233C7.21113 14.7027 6.9807 14.1264 7.00131 13.5319V9.09395H2.50131ZM9.25132 2.43706V13.5319H20.5013V2.43706H9.25132Z" fill="#141414"/>
</svg>
