<svg width="29" height="29" viewBox="0 0 29 29" fill="none" xmlns="http://www.w3.org/2000/svg">
<g clip-path="url(#clip0_3861_79817)">
<path d="M24.7205 0H3.53151C1.58388 0 0 1.58388 0 3.53151V24.7205C0 26.6682 1.58388 28.252 3.53151 28.252H24.7205C26.6682 28.252 28.252 26.6682 28.252 24.7205V3.53151C28.252 1.58388 26.6682 0 24.7205 0Z" fill="#1976D2"/>
<path d="M23.8369 14.1256H19.4225V10.5941C19.4225 9.61944 20.2136 9.71126 21.1883 9.71126H22.954V5.29688H19.4225C16.4967 5.29688 14.1253 7.66828 14.1253 10.5941V14.1256H10.5938V18.54H14.1253V28.2517H19.4225V18.54H22.0711L23.8369 14.1256Z" fill="#FAFAFA"/>
</g>
<defs>
<clipPath id="clip0_3861_79817">
<rect width="28.252" height="28.252" rx="3.64187" fill="white"/>
</clipPath>
</defs>
</svg>
