<svg width="29" height="29" viewBox="0 0 29 29" fill="none" xmlns="http://www.w3.org/2000/svg">
<g clip-path="url(#clip0_3861_79854)">
<path d="M24.3995 0H3.85255C1.72485 0 0 1.72485 0 3.85255V24.3995C0 26.5272 1.72485 28.252 3.85255 28.252H24.3995C26.5272 28.252 28.252 26.5272 28.252 24.3995V3.85255C28.252 1.72485 26.5272 0 24.3995 0Z" fill="#0077B5"/>
<path d="M10.179 7.70472C10.179 8.18095 10.0378 8.64648 9.77318 9.04245C9.5086 9.43842 9.13255 9.74703 8.69257 9.92928C8.25259 10.1115 7.76846 10.1592 7.30138 10.0663C6.8343 9.97339 6.40527 9.74407 6.06852 9.40732C5.73178 9.07058 5.50246 8.64154 5.40955 8.17447C5.31664 7.70739 5.36432 7.22325 5.54657 6.78328C5.72881 6.3433 6.03743 5.96725 6.4334 5.70267C6.82937 5.43809 7.2949 5.29688 7.77113 5.29688C8.40973 5.29688 9.02217 5.55056 9.47373 6.00212C9.92529 6.45368 10.179 7.06612 10.179 7.70472Z" fill="white"/>
<path d="M9.6329 11.7182V22.3561C9.63332 22.4346 9.61823 22.5124 9.58849 22.585C9.55875 22.6576 9.51495 22.7236 9.45961 22.7793C9.40427 22.8349 9.33847 22.8791 9.26601 22.9092C9.19354 22.9393 9.11584 22.9548 9.03736 22.9548H6.49949C6.42101 22.9551 6.34327 22.9398 6.27072 22.9098C6.19818 22.8799 6.13227 22.8359 6.07677 22.7804C6.02128 22.7249 5.9773 22.659 5.94737 22.5865C5.91744 22.5139 5.90213 22.4362 5.90235 22.3577V11.7182C5.90235 11.5599 5.96526 11.408 6.07725 11.296C6.18923 11.184 6.34112 11.1211 6.49949 11.1211H9.03736C9.19546 11.1215 9.34693 11.1846 9.45857 11.2966C9.57021 11.4085 9.6329 11.5601 9.6329 11.7182Z" fill="white"/>
<path d="M22.8974 17.2551V22.4047C22.8977 22.4769 22.8836 22.5483 22.8561 22.615C22.8286 22.6817 22.7881 22.7423 22.7371 22.7934C22.6861 22.8444 22.6255 22.8848 22.5588 22.9123C22.4921 22.9398 22.4206 22.9539 22.3485 22.9537H19.6196C19.5474 22.9539 19.4759 22.9398 19.4092 22.9123C19.3425 22.8848 19.2819 22.8444 19.2309 22.7934C19.1799 22.7423 19.1395 22.6817 19.1119 22.615C19.0844 22.5483 19.0704 22.4769 19.0706 22.4047V17.414C19.0706 16.6692 19.2889 14.1522 17.1234 14.1522C15.446 14.1522 15.1041 15.8746 15.0366 16.6483V22.4047C15.0367 22.5489 14.9799 22.6874 14.8787 22.7901C14.7775 22.8928 14.6399 22.9516 14.4957 22.9537H11.8599C11.7879 22.9537 11.7166 22.9395 11.65 22.9119C11.5835 22.8843 11.5231 22.8438 11.4723 22.7928C11.4214 22.7418 11.3811 22.6813 11.3537 22.6147C11.3263 22.5481 11.3123 22.4767 11.3125 22.4047V11.6705C11.3123 11.5985 11.3263 11.5272 11.3537 11.4606C11.3811 11.394 11.4214 11.3334 11.4723 11.2824C11.5231 11.2314 11.5835 11.191 11.65 11.1634C11.7166 11.1358 11.7879 11.1215 11.8599 11.1215H14.4957C14.6413 11.1215 14.7809 11.1794 14.8839 11.2823C14.9868 11.3853 15.0447 11.5249 15.0447 11.6705V12.5984C15.6675 11.6641 16.5905 10.9434 18.5601 10.9434C22.9231 10.9434 22.8974 15.0174 22.8974 17.2551Z" fill="white"/>
</g>
<defs>
<clipPath id="clip0_3861_79854">
<rect width="28.252" height="28.252" rx="3.64187" fill="white"/>
</clipPath>
</defs>
</svg>
