<svg width="29" height="29" viewBox="0 0 29 29" fill="none" xmlns="http://www.w3.org/2000/svg">
<g clip-path="url(#clip0_3861_79784)">
<rect width="28.252" height="28.252" rx="3.64187" fill="#0084FF"/>
<path d="M14.126 28.252C21.9276 28.252 28.252 21.9276 28.252 14.126C28.252 6.32444 21.9276 0 14.126 0C6.32444 0 0 6.32444 0 14.126C0 21.9276 6.32444 28.252 14.126 28.252Z" fill="#0084FF"/>
<path d="M22.9544 13.7926C22.9544 18.3081 19.0007 21.9681 14.1256 21.9681C13.2697 21.9686 12.4177 21.8536 11.5926 21.6261L8.58599 23.2747V20.1574C6.58106 18.6597 5.29688 16.3722 5.29688 13.7926C5.29688 9.27711 9.25056 5.61719 14.1256 5.61719C19.0007 5.61719 22.9544 9.27872 22.9544 13.7926Z" fill="white"/>
<path d="M19.8285 11.5039L15.0016 16.6246L12.7543 14.228L8.36719 16.6262L13.1941 11.5039L15.4976 13.9005L19.8285 11.5039Z" fill="#2196F3"/>
</g>
<defs>
<clipPath id="clip0_3861_79784">
<rect width="28.252" height="28.252" rx="3.64187" fill="white"/>
</clipPath>
</defs>
</svg>
