<svg width="29" height="29" viewBox="0 0 29 29" fill="none" xmlns="http://www.w3.org/2000/svg">
<g clip-path="url(#clip0_3861_79811)">
<path d="M26.0216 -0.00195312H2.23042C0.998595 -0.00195312 0 0.996642 0 2.22847V26.0197C0 27.2515 0.998595 28.2501 2.23042 28.2501H26.0216C27.2535 28.2501 28.252 27.2515 28.252 26.0197V2.22847C28.252 0.996642 27.2535 -0.00195312 26.0216 -0.00195312Z" fill="#03A9F4"/>
<path d="M23.2755 8.44902C22.5872 8.74962 21.8592 8.94932 21.1139 9.04194C21.8996 8.57603 22.4869 7.83792 22.7644 6.96765C22.029 7.40414 21.2244 7.71154 20.3853 7.87655C19.8711 7.32665 19.2033 6.94421 18.4689 6.77897C17.7344 6.61373 16.9672 6.67333 16.267 6.95002C15.5669 7.22671 14.9662 7.70768 14.5431 8.33039C14.12 8.95309 13.8941 9.6887 13.8947 10.4415C13.8921 10.7289 13.9214 11.0156 13.9821 11.2965C12.4895 11.2232 11.0292 10.8359 9.69651 10.1597C8.36383 9.48364 7.18878 8.534 6.24809 7.37284C5.76457 8.19886 5.61477 9.17835 5.82931 10.1111C6.04385 11.0439 6.60653 11.8595 7.40234 12.3913C6.80835 12.3753 6.22693 12.2165 5.70722 11.9285V11.9694C5.70889 12.8352 6.00858 13.6741 6.55591 14.3449C7.10325 15.0158 7.86485 15.4778 8.71271 15.6533C8.39185 15.7376 8.0612 15.7788 7.72947 15.776C7.4906 15.7804 7.25195 15.7592 7.01759 15.7128C7.2605 16.4574 7.72815 17.1085 8.35622 17.5765C8.98429 18.0444 9.74193 18.3063 10.5249 18.3261C9.19806 19.3632 7.56232 19.9266 5.87821 19.9264C5.57814 19.929 5.27823 19.9116 4.98047 19.8744C6.69766 20.9815 8.69926 21.5665 10.7424 21.5583C17.6474 21.5583 21.4224 15.8392 21.4224 10.882C21.4224 10.7166 21.4224 10.5568 21.4094 10.3969C22.1446 9.86634 22.7769 9.20627 23.2755 8.44902Z" fill="white"/>
</g>
<defs>
<clipPath id="clip0_3861_79811">
<rect width="28.252" height="28.252" rx="3.64187" fill="white"/>
</clipPath>
</defs>
</svg>
