<svg width="29" height="29" viewBox="0 0 29 29" fill="none" xmlns="http://www.w3.org/2000/svg">
<g clip-path="url(#clip0_3861_79777)">
<path d="M24.3995 0.00195312H3.85255C1.72485 0.00195312 0 1.7268 0 3.85451V24.4014C0 26.5292 1.72485 28.254 3.85255 28.254H24.3995C26.5272 28.254 28.252 26.5292 28.252 24.4014V3.85451C28.252 1.7268 26.5272 0.00195312 24.3995 0.00195312Z" fill="#29A71A"/>
<path d="M20.3517 7.89924C18.882 6.41488 16.9302 5.50457 14.8485 5.33252C12.7667 5.16046 10.692 5.73797 8.99855 6.96089C7.3051 8.18381 6.10439 9.97163 5.61302 12.0019C5.12164 14.0321 5.37194 16.1711 6.31876 18.0331L5.38934 22.5454C5.37969 22.5903 5.37942 22.6367 5.38853 22.6817C5.39765 22.7267 5.41595 22.7694 5.44231 22.807C5.48091 22.8641 5.53602 22.9081 5.60027 22.933C5.66452 22.958 5.73485 22.9627 5.80188 22.9467L10.2243 21.8985C12.081 22.8213 14.2049 23.0555 16.2181 22.5594C18.2313 22.0633 20.0031 20.869 21.2184 19.1891C22.4337 17.5092 23.0136 15.4526 22.8549 13.3853C22.6962 11.3179 21.8092 9.37396 20.3517 7.89924ZM18.9728 18.9047C17.9559 19.9187 16.6465 20.5881 15.229 20.8185C13.8116 21.0489 12.3575 20.8287 11.0718 20.1889L10.4554 19.8839L7.74421 20.526L7.75223 20.4923L8.31406 17.7634L8.01228 17.1678C7.35536 15.8777 7.12362 14.4127 7.35026 12.9828C7.57691 11.5528 8.25031 10.2313 9.27399 9.2075C10.5603 7.92162 12.3046 7.19926 14.1234 7.19926C15.9422 7.19926 17.6865 7.92162 18.9728 9.2075C18.9837 9.22007 18.9955 9.23187 19.0081 9.24282C20.2784 10.532 20.9876 12.2711 20.981 14.081C20.9744 15.8909 20.2525 17.6248 18.9728 18.9047Z" fill="white"/>
<path d="M18.7318 16.9039C18.3995 17.4272 17.8746 18.0677 17.2149 18.2266C16.0591 18.5059 14.2853 18.2362 12.0781 16.1783L12.0508 16.1542C10.1101 14.3548 9.60608 12.8571 9.72808 11.6692C9.7955 10.995 10.3573 10.385 10.8309 9.98694C10.9057 9.92305 10.9945 9.87755 11.0901 9.8541C11.1857 9.83065 11.2855 9.8299 11.3814 9.85189C11.4773 9.87389 11.5668 9.91803 11.6426 9.98078C11.7184 10.0435 11.7785 10.1232 11.8181 10.2133L12.5324 11.8185C12.5788 11.9226 12.596 12.0374 12.5822 12.1505C12.5683 12.2636 12.5239 12.3708 12.4538 12.4606L12.0926 12.9293C12.0151 13.0261 11.9683 13.1439 11.9583 13.2675C11.9483 13.391 11.9755 13.5148 12.0364 13.6228C12.2387 13.9775 12.7234 14.4992 13.2612 14.9824C13.8648 15.5282 14.5341 16.0274 14.9579 16.1976C15.0713 16.2439 15.196 16.2552 15.3159 16.23C15.4357 16.2049 15.5453 16.1444 15.6305 16.0563L16.0495 15.6341C16.1303 15.5544 16.2309 15.4976 16.3408 15.4694C16.4508 15.4412 16.5663 15.4426 16.6755 15.4736L18.3722 15.9552C18.4658 15.9839 18.5516 16.0336 18.6231 16.1006C18.6945 16.1675 18.7497 16.2499 18.7844 16.3415C18.819 16.433 18.8324 16.5313 18.8232 16.6288C18.8141 16.7262 18.7829 16.8203 18.7318 16.9039Z" fill="white"/>
</g>
<defs>
<clipPath id="clip0_3861_79777">
<rect width="28.252" height="28.252" fill="white"/>
</clipPath>
</defs>
</svg>
