<svg width="18" height="18" viewBox="0 0 18 18" fill="none" xmlns="http://www.w3.org/2000/svg">
<g opacity="0.5">
<path d="M8.19776 7.32749L9.14929 7.31884L9.20116 13.028L8.24964 13.0367L8.19776 7.32749ZM7.9579 5.09706C7.9562 4.91 8.01978 4.74676 8.14865 4.60732C8.28565 4.46781 8.45174 4.39716 8.64693 4.39539C8.84211 4.39362 9.00539 4.46127 9.13677 4.59834C9.27628 4.73534 9.34689 4.89737 9.34859 5.08442C9.35044 5.28774 9.28689 5.45505 9.15795 5.58635C9.02901 5.71766 8.86288 5.78424 8.65956 5.78608C8.45624 5.78793 8.28893 5.72438 8.15763 5.59544C8.02632 5.4665 7.95974 5.30037 7.9579 5.09706Z" fill="#141414"/>
<circle cx="8.52225" cy="9.06604" r="7.97665" transform="rotate(-0.520569 8.52225 9.06604)" stroke="#141414" stroke-width="0.938429"/>
</g>
</svg>
